<svg width="158" height="56" viewBox="0 0 158 56" fill="none" xmlns="http://www.w3.org/2000/svg">
<path d="M83.01 50.9988C91.7918 55.7274 102.6 50.9988 105.618 42.8925" stroke="#6E7556" stroke-width="5.40416" stroke-linecap="round"/>
<path d="M142.133 43.8225C141.42 43.8225 140.836 43.6279 140.382 43.2388C139.928 42.8822 139.652 42.3958 139.555 41.7797C139.49 41.1636 139.604 40.5151 139.896 39.8342L143.203 32.49V35.0191L134.351 14.5428C134.059 13.8294 133.962 13.1647 134.059 12.5486C134.156 11.9326 134.448 11.4462 134.935 11.0895C135.453 10.7004 136.151 10.5059 137.026 10.5059C137.772 10.5059 138.372 10.6842 138.826 11.0409C139.28 11.3651 139.685 11.9974 140.042 12.9377L146.608 29.3285H145.149L151.86 12.8891C152.217 11.9812 152.639 11.3651 153.125 11.0409C153.611 10.6842 154.26 10.5059 155.071 10.5059C155.784 10.5059 156.351 10.7004 156.773 11.0895C157.194 11.4462 157.454 11.9326 157.551 12.5486C157.648 13.1323 157.535 13.7808 157.211 14.4941L145.392 41.4879C144.97 42.3958 144.516 43.0119 144.03 43.3361C143.543 43.6604 142.911 43.8225 142.133 43.8225Z" fill="black"/>
<path d="M129.31 35.1648C126.619 35.1648 124.592 34.4029 123.231 32.8789C121.869 31.3225 121.188 29.0527 121.188 26.0697V3.06416C121.188 2.05898 121.447 1.297 121.966 0.7782C122.485 0.2594 123.231 0 124.203 0C125.176 0 125.922 0.2594 126.441 0.7782C126.992 1.297 127.267 2.05898 127.267 3.06416V25.7778C127.267 27.2694 127.575 28.3718 128.192 29.0852C128.84 29.7985 129.748 30.1552 130.915 30.1552C131.175 30.1552 131.418 30.1552 131.645 30.1552C131.872 30.1228 132.099 30.0903 132.326 30.0579C132.78 29.9931 133.088 30.1228 133.25 30.447C133.412 30.7388 133.493 31.3549 133.493 32.2952C133.493 33.1059 133.331 33.7382 133.007 34.1921C132.682 34.646 132.147 34.9217 131.402 35.0189C131.077 35.0514 130.737 35.0838 130.38 35.1162C130.024 35.1486 129.667 35.1648 129.31 35.1648Z" fill="black"/>
<path d="M106.548 35.1646C103.857 35.1646 101.539 34.6621 99.5931 33.6569C97.6476 32.6517 96.1398 31.225 95.0698 29.3768C94.0322 27.5286 93.5134 25.3399 93.5134 22.8107C93.5134 20.3464 94.016 18.1902 95.0212 16.342C96.0588 14.4937 97.4693 13.0508 99.2526 12.0132C101.068 10.9432 103.127 10.4082 105.43 10.4082C107.116 10.4082 108.623 10.6838 109.953 11.235C111.315 11.7863 112.466 12.5807 113.406 13.6183C114.379 14.6559 115.108 15.9204 115.595 17.412C116.114 18.8711 116.373 20.5248 116.373 22.373C116.373 22.9567 116.162 23.4106 115.741 23.7349C115.352 24.0267 114.784 24.1726 114.038 24.1726H98.4258V20.6707H112.093L111.315 21.4003C111.315 19.9087 111.088 18.6603 110.634 17.6552C110.212 16.65 109.58 15.888 108.737 15.3692C107.926 14.818 106.905 14.5424 105.673 14.5424C104.311 14.5424 103.144 14.8666 102.171 15.5151C101.231 16.1312 100.501 17.0229 99.9822 18.1902C99.4958 19.3251 99.2526 20.6869 99.2526 22.2757V22.6162C99.2526 25.275 99.8687 27.2692 101.101 28.5986C102.365 29.8956 104.214 30.5441 106.646 30.5441C107.489 30.5441 108.429 30.4468 109.466 30.2523C110.537 30.0253 111.542 29.6524 112.482 29.1336C113.163 28.7445 113.763 28.5824 114.282 28.6472C114.8 28.6797 115.206 28.858 115.498 29.1822C115.822 29.5065 116.016 29.9118 116.081 30.3982C116.146 30.8521 116.049 31.3223 115.789 31.8087C115.562 32.295 115.157 32.7166 114.573 33.0732C113.439 33.7866 112.125 34.3216 110.634 34.6783C109.175 35.0025 107.813 35.1646 106.548 35.1646Z" fill="#6E7556"/>
<path d="M80.1874 35.1649C77.4961 35.1649 75.1778 34.6623 73.2323 33.6571C71.2868 32.652 69.779 31.2253 68.709 29.377C67.6714 27.5288 67.1526 25.3401 67.1526 22.811C67.1526 20.3467 67.6552 18.1904 68.6603 16.3422C69.6979 14.494 71.1084 13.0511 72.8918 12.0135C74.7076 10.9435 76.7666 10.4084 79.0688 10.4084C80.7548 10.4084 82.2626 10.6841 83.592 11.2353C84.9539 11.7865 86.105 12.5809 87.0453 13.6185C88.018 14.6561 88.7476 15.9207 89.234 17.4122C89.7528 18.8714 90.0122 20.525 90.0122 22.3732C90.0122 22.9569 89.8014 23.4108 89.3799 23.7351C88.9908 24.0269 88.4233 24.1728 87.6776 24.1728H72.065V20.6709H85.7321L84.9539 21.4005C84.9539 19.909 84.7269 18.6606 84.273 17.6554C83.8514 16.6502 83.2191 15.8883 82.3761 15.3695C81.5655 14.8182 80.5441 14.5426 79.3119 14.5426C77.9501 14.5426 76.7828 14.8669 75.81 15.5154C74.8697 16.1314 74.1402 17.0231 73.6214 18.1904C73.135 19.3253 72.8918 20.6872 72.8918 22.276V22.6164C72.8918 25.2753 73.5079 27.2694 74.74 28.5988C76.0046 29.8958 77.8528 30.5443 80.2847 30.5443C81.1277 30.5443 82.0681 30.4471 83.1057 30.2525C84.1757 30.0255 85.1809 29.6526 86.1212 29.1338C86.8021 28.7447 87.402 28.5826 87.9208 28.6475C88.4396 28.6799 88.8449 28.8582 89.1367 29.1825C89.4609 29.5067 89.6555 29.912 89.7203 30.3984C89.7852 30.8524 89.6879 31.3225 89.4285 31.8089C89.2015 32.2953 88.7962 32.7168 88.2126 33.0735C87.0777 33.7868 85.7645 34.3218 84.273 34.6785C82.8138 35.0028 81.452 35.1649 80.1874 35.1649Z" fill="#6E7556"/>
<path d="M45.8031 35.0676C44.7979 35.0676 44.0035 34.792 43.4199 34.2408C42.8686 33.6571 42.593 32.8303 42.593 31.7603V3.6965C42.593 2.62648 42.8686 1.81586 43.4199 1.26463C44.0035 0.680984 44.8303 0.38916 45.9004 0.38916H62.8748C63.7179 0.38916 64.3502 0.599922 64.7717 1.02145C65.1932 1.44297 65.404 2.04283 65.404 2.82103C65.404 3.63165 65.1932 4.26394 64.7717 4.71789C64.3502 5.13941 63.7179 5.35017 62.8748 5.35017H48.8186V15.029H61.8534C62.6641 15.029 63.2801 15.2398 63.7017 15.6613C64.1556 16.0828 64.3826 16.6827 64.3826 17.4609C64.3826 18.2715 64.1556 18.9038 63.7017 19.3577C63.2801 19.7793 62.6641 19.99 61.8534 19.99H48.8186V31.7603C48.8186 33.9652 47.8134 35.0676 45.8031 35.0676Z" fill="black"/>
<path d="M16.5744 35.0676C15.6016 35.0676 14.8558 34.8082 14.337 34.2894C13.8182 33.7382 13.5588 32.96 13.5588 31.9548V13.5699C13.5588 12.5647 13.8182 11.8027 14.337 11.2839C14.8558 10.7651 15.5854 10.5057 16.5257 10.5057C17.466 10.5057 18.1956 10.7651 18.7144 11.2839C19.2332 11.8027 19.4926 12.5647 19.4926 13.5699V16.8772L18.9576 15.6613C19.6709 13.9428 20.7734 12.6458 22.2649 11.7703C23.7889 10.8624 25.5074 10.4084 27.4205 10.4084C29.3336 10.4084 30.9062 10.7651 32.1383 11.4785C33.3705 12.1918 34.2946 13.2781 34.9107 14.7372C35.5267 16.1639 35.8348 17.9797 35.8348 20.1846V31.9548C35.8348 32.96 35.5754 33.7382 35.0566 34.2894C34.5378 34.8082 33.792 35.0676 32.8193 35.0676C31.8465 35.0676 31.0845 34.8082 30.5333 34.2894C30.0145 33.7382 29.7551 32.96 29.7551 31.9548V20.4764C29.7551 18.6282 29.3984 17.2825 28.6851 16.4395C28.0041 15.5964 26.9341 15.1749 25.475 15.1749C23.6916 15.1749 22.2649 15.7423 21.1949 16.8772C20.1573 17.9797 19.6385 19.455 19.6385 21.3032V31.9548C19.6385 34.03 18.6171 35.0676 16.5744 35.0676Z" fill="black"/>
<path d="M3.52808 35.0676C2.5229 35.0676 1.74471 34.792 1.19348 34.2407C0.674682 33.6571 0.415283 32.8627 0.415283 31.8575V3.21007C0.415283 2.17247 0.674682 1.37806 1.19348 0.826836C1.74471 0.275612 2.5229 0 3.52808 0C4.53325 0 5.29524 0.275612 5.81403 0.826836C6.36526 1.37806 6.64087 2.17247 6.64087 3.21007V31.8575C6.64087 32.8627 6.38147 33.6571 5.86267 34.2407C5.34387 34.792 4.56568 35.0676 3.52808 35.0676Z" fill="black"/>
</svg>
