<svg width="18" height="16" viewBox="0 0 18 16" fill="none" xmlns="http://www.w3.org/2000/svg">
<path d="M7.29508 15.715C7.48488 15.8963 7.73835 15.9957 8.00078 15.9918C8.26322 15.9878 8.51359 15.8809 8.69786 15.694C8.88214 15.5071 8.98555 15.2552 8.98577 14.9928C8.986 14.7303 8.88303 14.4783 8.69908 14.291L3.32908 8.99904H16.9991C17.2643 8.99904 17.5186 8.89368 17.7062 8.70615C17.8937 8.51861 17.9991 8.26425 17.9991 7.99904C17.9991 7.73382 17.8937 7.47947 17.7062 7.29193C17.5186 7.1044 17.2643 6.99904 16.9991 6.99904H3.33608L8.70008 1.71404C8.88403 1.52682 8.987 1.27478 8.98677 1.01232C8.98655 0.749851 8.88314 0.497995 8.69886 0.311095C8.51459 0.124195 8.26422 0.0172358 8.00178 0.0132964C7.73935 0.009357 7.48588 0.108753 7.29608 0.290038L0.370078 7.11204C0.252162 7.22833 0.158529 7.36689 0.0946212 7.51968C0.0307129 7.67246 -0.00219727 7.83643 -0.00219727 8.00204C-0.00219727 8.16765 0.0307129 8.33161 0.0946212 8.4844C0.158529 8.63718 0.252162 8.77575 0.370078 8.89204L7.29508 15.715Z" fill="#252622"/>
</svg>
