<svg width="14" height="10" viewBox="0 0 14 10" fill="none" xmlns="http://www.w3.org/2000/svg">
<path d="M4.62553 8.12553L1.84873 5.00153C1.74306 4.8825 1.59444 4.81032 1.43556 4.80087C1.27668 4.79141 1.12055 4.84546 1.00153 4.95113C0.882496 5.05679 0.810317 5.20541 0.800865 5.36429C0.791413 5.52317 0.845463 5.6793 0.951126 5.79833L4.15113 9.39833C4.20545 9.45945 4.27169 9.50882 4.34579 9.54341C4.41988 9.578 4.50026 9.59708 4.582 9.59947C4.66374 9.60187 4.7451 9.58754 4.8211 9.55735C4.89709 9.52716 4.96611 9.48176 5.02393 9.42393L13.4239 1.02393C13.5299 0.910186 13.5876 0.759749 13.5849 0.604308C13.5821 0.448867 13.5192 0.300559 13.4092 0.190629C13.2993 0.0806982 13.151 0.0177286 12.9955 0.0149861C12.8401 0.0122435 12.6897 0.069942 12.5759 0.175926L4.62553 8.12553Z" fill="#90AA8B"/>
</svg>
