<svg width="10" height="10" viewBox="0 0 10 10" fill="none" xmlns="http://www.w3.org/2000/svg">
<path d="M9.8824 9.75667L9.824 9.82387C9.72241 9.92549 9.58772 9.98727 9.44443 9.99799C9.30115 10.0087 9.15877 9.96764 9.0432 9.88227L8.976 9.82387L5 5.84867L1.024 9.82467C0.922305 9.92617 0.78757 9.9878 0.644285 9.99837C0.501 10.0089 0.35868 9.96775 0.243196 9.88227L0.175996 9.82387C0.0743818 9.72228 0.012599 9.5876 0.0018816 9.44431C-0.00883484 9.30103 0.0322247 9.15865 0.117596 9.04307L0.175996 8.97587L4.1512 4.99987L0.175196 1.02387C0.0737019 0.922183 0.0120659 0.787448 0.00149632 0.644163C-0.00907421 0.500878 0.0321226 0.358558 0.117596 0.243073L0.175996 0.175874C0.277586 0.0742598 0.41227 0.0124769 0.555557 0.00175953C0.698844 -0.00895691 0.84122 0.0321026 0.956796 0.117474L1.024 0.175874L5 4.15107L8.976 0.175074C9.07769 0.0735798 9.21242 0.0119438 9.35571 0.00137424C9.49899 -0.00919628 9.64131 0.0320005 9.7568 0.117474L9.824 0.175874C9.92561 0.277464 9.98739 0.412148 9.99811 0.555435C10.0088 0.698722 9.96777 0.841098 9.8824 0.956674L9.824 1.02387L5.8488 4.99987L9.8248 8.97587C9.92629 9.07756 9.98793 9.2123 9.9985 9.35558C10.0091 9.49887 9.96787 9.64119 9.8824 9.75667Z" fill="#D10D10"/>
</svg>
