<svg width="20" height="20" viewBox="0 0 20 20" fill="none" xmlns="http://www.w3.org/2000/svg">
<path d="M1.42473 0.575128C1.36894 0.519342 1.30272 0.475091 1.22983 0.4449C1.15694 0.414709 1.07882 0.39917 0.999928 0.39917C0.921035 0.39917 0.842915 0.414709 0.770028 0.4449C0.69714 0.475091 0.630913 0.519342 0.575128 0.575128C0.519342 0.630913 0.475091 0.69714 0.4449 0.770028C0.414709 0.842915 0.39917 0.921035 0.39917 0.999928C0.39917 1.07882 0.414709 1.15694 0.4449 1.22983C0.475091 1.30272 0.519342 1.36894 0.575128 1.42473L4.77513 5.62233C2.69529 7.0414 1.24725 9.21216 0.735928 11.6775C0.719854 11.7547 0.719131 11.8342 0.733801 11.9116C0.74847 11.9891 0.778244 12.0628 0.821423 12.1287C0.864603 12.1946 0.920341 12.2514 0.985457 12.2958C1.05057 12.3401 1.12379 12.3713 1.20093 12.3873C1.27807 12.4034 1.35762 12.4041 1.43503 12.3895C1.51245 12.3748 1.58622 12.345 1.65213 12.3018C1.71804 12.2587 1.7748 12.2029 1.81917 12.1378C1.86354 12.0727 1.89465 11.9995 1.91073 11.9223C2.14043 10.8144 2.58853 9.76322 3.22888 8.83031C3.86923 7.89739 4.68899 7.10138 5.64033 6.48873L7.53993 8.38713C7.04484 8.74224 6.63294 9.20082 6.33281 9.73104C6.03268 10.2613 5.8515 10.8504 5.80185 11.4577C5.7522 12.0649 5.83526 12.6757 6.04527 13.2477C6.25528 13.8196 6.58721 14.339 7.01803 14.7698C7.44886 15.2006 7.96825 15.5326 8.54019 15.7426C9.11213 15.9526 9.72291 16.0357 10.3302 15.986C10.9374 15.9364 11.5266 15.7552 12.0568 15.455C12.587 15.1549 13.0456 14.743 13.4007 14.2479L18.5763 19.4247C18.689 19.5374 18.8418 19.6007 19.0011 19.6007C19.1605 19.6007 19.3133 19.5374 19.4259 19.4247C19.5386 19.3121 19.6019 19.1593 19.6019 18.9999C19.6019 18.8406 19.5386 18.6878 19.4259 18.5751L1.42473 0.575128ZM10.1487 7.60353L14.1843 11.6391C14.1437 10.5818 13.7055 9.57877 12.9573 8.83058C12.2091 8.08239 11.2061 7.64416 10.1487 7.60353ZM7.03593 4.49193L7.99953 5.45553C8.65271 5.28544 9.32496 5.19954 9.99993 5.19993C13.8471 5.19993 17.2683 7.99233 18.0879 11.9223C18.1204 12.0783 18.2135 12.2149 18.3467 12.3023C18.4799 12.3896 18.6424 12.4204 18.7983 12.3879C18.9543 12.3555 19.0909 12.2624 19.1783 12.1292C19.2656 11.9959 19.2964 11.8335 19.2639 11.6775C18.3315 7.20753 14.4315 3.99993 9.99993 3.99993C8.97393 3.99993 7.97433 4.17153 7.03593 4.49193Z" fill="black"/>
</svg>
