<svg width="20" height="12" viewBox="0 0 20 12" fill="none" xmlns="http://www.w3.org/2000/svg">
<path d="M1.912 7.9224C2.7304 3.9924 6.1516 1.2 10 1.2C13.8484 1.2 17.2684 3.9924 18.088 7.9224C18.1205 8.07835 18.2135 8.21501 18.3468 8.30233C18.48 8.38965 18.6425 8.42046 18.7984 8.388C18.9543 8.35554 19.091 8.26246 19.1783 8.12923C19.2656 7.996 19.2965 7.83355 19.264 7.6776C18.3316 3.2076 14.4316 0 10 0C5.5684 0 1.6684 3.2076 0.735996 7.6776C0.703533 7.83355 0.73435 7.996 0.821667 8.12923C0.908984 8.26246 1.04565 8.35554 1.2016 8.388C1.35754 8.42046 1.52 8.38965 1.65322 8.30233C1.78645 8.21501 1.87953 8.07835 1.912 7.9224ZM9.988 3.6C11.1019 3.6 12.1702 4.0425 12.9578 4.83015C13.7455 5.6178 14.188 6.68609 14.188 7.8C14.188 8.91391 13.7455 9.9822 12.9578 10.7698C12.1702 11.5575 11.1019 12 9.988 12C8.87409 12 7.8058 11.5575 7.01815 10.7698C6.23049 9.9822 5.788 8.91391 5.788 7.8C5.788 6.68609 6.23049 5.6178 7.01815 4.83015C7.8058 4.0425 8.87409 3.6 9.988 3.6Z" fill="black"/>
</svg>
