<svg width="24" height="24" viewBox="0 0 24 24" fill="none" xmlns="http://www.w3.org/2000/svg">
<path d="M4.8 0.800003C3.73914 0.800003 2.72172 1.22143 1.97158 1.97158C1.22143 2.72172 0.800003 3.73914 0.800003 4.8V5.6H23.2V4.8C23.2 3.73914 22.7786 2.72172 22.0284 1.97158C21.2783 1.22143 20.2609 0.800003 19.2 0.800003H4.8ZM23.2 7.2H0.800003V19.2C0.800003 20.2609 1.22143 21.2783 1.97158 22.0284C2.72172 22.7786 3.73914 23.2 4.8 23.2H19.2C20.2609 23.2 21.2783 22.7786 22.0284 22.0284C22.7786 21.2783 23.2 20.2609 23.2 19.2V7.2ZM8.8 12C8.8 12.4243 8.63143 12.8313 8.33137 13.1314C8.03132 13.4314 7.62435 13.6 7.2 13.6C6.77566 13.6 6.36869 13.4314 6.06863 13.1314C5.76857 12.8313 5.6 12.4243 5.6 12C5.6 11.5757 5.76857 11.1687 6.06863 10.8686C6.36869 10.5686 6.77566 10.4 7.2 10.4C7.62435 10.4 8.03132 10.5686 8.33137 10.8686C8.63143 11.1687 8.8 11.5757 8.8 12ZM7.2 18.4C6.77566 18.4 6.36869 18.2314 6.06863 17.9314C5.76857 17.6313 5.6 17.2243 5.6 16.8C5.6 16.3757 5.76857 15.9687 6.06863 15.6686C6.36869 15.3686 6.77566 15.2 7.2 15.2C7.62435 15.2 8.03132 15.3686 8.33137 15.6686C8.63143 15.9687 8.8 16.3757 8.8 16.8C8.8 17.2243 8.63143 17.6313 8.33137 17.9314C8.03132 18.2314 7.62435 18.4 7.2 18.4ZM13.6 12C13.6 12.4243 13.4314 12.8313 13.1314 13.1314C12.8313 13.4314 12.4243 13.6 12 13.6C11.5757 13.6 11.1687 13.4314 10.8686 13.1314C10.5686 12.8313 10.4 12.4243 10.4 12C10.4 11.5757 10.5686 11.1687 10.8686 10.8686C11.1687 10.5686 11.5757 10.4 12 10.4C12.4243 10.4 12.8313 10.5686 13.1314 10.8686C13.4314 11.1687 13.6 11.5757 13.6 12ZM12 18.4C11.5757 18.4 11.1687 18.2314 10.8686 17.9314C10.5686 17.6313 10.4 17.2243 10.4 16.8C10.4 16.3757 10.5686 15.9687 10.8686 15.6686C11.1687 15.3686 11.5757 15.2 12 15.2C12.4243 15.2 12.8313 15.3686 13.1314 15.6686C13.4314 15.9687 13.6 16.3757 13.6 16.8C13.6 17.2243 13.4314 17.6313 13.1314 17.9314C12.8313 18.2314 12.4243 18.4 12 18.4ZM18.4 12C18.4 12.4243 18.2314 12.8313 17.9314 13.1314C17.6313 13.4314 17.2243 13.6 16.8 13.6C16.3757 13.6 15.9687 13.4314 15.6686 13.1314C15.3686 12.8313 15.2 12.4243 15.2 12C15.2 11.5757 15.3686 11.1687 15.6686 10.8686C15.9687 10.5686 16.3757 10.4 16.8 10.4C17.2243 10.4 17.6313 10.5686 17.9314 10.8686C18.2314 11.1687 18.4 11.5757 18.4 12Z" fill="#252622"/>
</svg>
